# xmcd CD database file
#
# Track frame offsets:
#	150
#	20479
#	39530
#	58512
#	71755
#	84625
#	102754
#	119449
#	137041
#	151211
#
# Disc length: 2219 seconds
#
# Revision: 1
# Processed by: cddbd v1.5.1PL2 Copyright (c) Steve Scherf et al.
# Submitted via: CDex 1.51
#
DISCID=8208a90a
DTITLE=’ννα Βίσση - Είμαι
DYEAR=1997
DGENRE=Greek
TTITLE0=Είμαι
TTITLE1=’δικα
TTITLE2=Φως
TTITLE3=Περιμένω τηλεφώνημά σου
TTITLE4=Υποψίες
TTITLE5=Ένα σου λέω
TTITLE6=Η ζωή συνεχίζεται
TTITLE7=Υπερβολές
TTITLE8=Ξεχνάς
TTITLE9=Μόνο ένα θαύμα
EXTD=YEAR: 1997
EXTT0=
EXTT1=
EXTT2=
EXTT3=
EXTT4=
EXTT5=
EXTT6=
EXTT7=
EXTT8=
EXTT9=
PLAYORDER=
